<svg width="155" height="25" viewBox="0 0 155 25" fill="none" xmlns="http://www.w3.org/2000/svg">
<path d="M0.36 24L10.32 1.05H10.56L20.52 24H15.48L9.12 7.86L12.27 5.7L4.65 24H0.36ZM7.17 16.02H13.8L15.33 19.68H5.82L7.17 16.02ZM23.0487 0.329999H27.2487V24H23.0487V0.329999ZM35.8041 24.63C34.6241 24.63 33.6341 24.27 32.8341 23.55C32.0341 22.81 31.6141 21.86 31.5741 20.7V10.89H35.7741V19.14C35.8141 19.72 35.9641 20.19 36.2241 20.55C36.4841 20.89 36.9241 21.06 37.5441 21.06C38.1641 21.06 38.6941 20.85 39.1341 20.43C39.5941 20.01 39.9441 19.44 40.1841 18.72C40.4441 17.98 40.5741 17.15 40.5741 16.23V10.89H44.7741V24H40.9641L40.6341 21.6L40.6941 21.87C40.3941 22.41 40.0141 22.89 39.5541 23.31C39.0941 23.73 38.5441 24.05 37.9041 24.27C37.2841 24.51 36.5841 24.63 35.8041 24.63ZM52.8736 10.89L53.2636 14.49L53.1736 13.95C53.5536 13.17 54.0736 12.51 54.7336 11.97C55.3936 11.41 56.0436 10.98 56.6836 10.68C57.3436 10.38 57.8436 10.23 58.1836 10.23L57.9736 14.43C56.9936 14.31 56.1536 14.47 55.4536 14.91C54.7536 15.35 54.2136 15.93 53.8336 16.65C53.4536 17.37 53.2636 18.11 53.2636 18.87V24H49.0936V10.89H52.8736ZM66.4788 24.36C65.2588 24.36 64.1488 24.12 63.1488 23.64C62.1688 23.14 61.3888 22.38 60.8088 21.36C60.2288 20.34 59.9388 19.04 59.9388 17.46C59.9388 15.98 60.2388 14.7 60.8388 13.62C61.4388 12.54 62.2288 11.71 63.2088 11.13C64.1888 10.53 65.2288 10.23 66.3288 10.23C67.6288 10.23 68.6088 10.45 69.2688 10.89C69.9488 11.31 70.5088 11.78 70.9488 12.3L70.7688 12.81L71.1588 10.89H75.0588V24H70.8588V21.15L71.1888 22.05C71.1488 22.05 71.0288 22.17 70.8288 22.41C70.6288 22.63 70.3288 22.9 69.9288 23.22C69.5488 23.52 69.0688 23.78 68.4888 24C67.9288 24.24 67.2588 24.36 66.4788 24.36ZM67.6788 20.94C68.1788 20.94 68.6288 20.87 69.0288 20.73C69.4288 20.57 69.7788 20.35 70.0788 20.07C70.3788 19.77 70.6388 19.4 70.8588 18.96V15.75C70.6988 15.31 70.4588 14.94 70.1388 14.64C69.8188 14.32 69.4388 14.08 68.9988 13.92C68.5588 13.74 68.0688 13.65 67.5288 13.65C66.9288 13.65 66.3688 13.81 65.8488 14.13C65.3488 14.43 64.9488 14.85 64.6488 15.39C64.3488 15.93 64.1988 16.55 64.1988 17.25C64.1988 17.95 64.3588 18.58 64.6788 19.14C64.9988 19.7 65.4188 20.14 65.9388 20.46C66.4788 20.78 67.0588 20.94 67.6788 20.94ZM90.0066 12.75C91.2466 13.23 92.2266 13.92 92.9466 14.82C93.6666 15.7 94.0266 16.73 94.0266 17.91C94.0266 19.29 93.6866 20.44 93.0066 21.36C92.3466 22.26 91.4666 22.93 90.3666 23.37C89.2866 23.79 88.0966 24 86.7966 24H80.3466V2.31H85.9566C88.1766 2.31 89.8966 2.77 91.1166 3.69C92.3366 4.59 92.9466 5.95 92.9466 7.77C92.9466 8.91 92.6866 9.91 92.1666 10.77C91.6666 11.61 90.9466 12.27 90.0066 12.75ZM83.2566 11.79H86.5566C87.6766 11.79 88.5166 11.47 89.0766 10.83C89.6566 10.19 89.9466 9.37 89.9466 8.37C89.9466 7.27 89.6066 6.45 88.9266 5.91C88.2466 5.37 87.2966 5.1 86.0766 5.1H83.2566V11.79ZM86.6766 21.3C87.9366 21.3 88.9766 21.02 89.7966 20.46C90.6166 19.88 91.0266 19.04 91.0266 17.94C91.0266 16.8 90.5766 15.96 89.6766 15.42C88.7966 14.88 87.7266 14.61 86.4666 14.61H83.2566V21.3H86.6766ZM97.1508 17.67C97.1508 16.45 97.4408 15.34 98.0208 14.34C98.6208 13.32 99.4408 12.52 100.481 11.94C101.541 11.36 102.731 11.07 104.051 11.07C105.371 11.07 106.541 11.36 107.561 11.94C108.601 12.52 109.401 13.31 109.961 14.31C110.541 15.31 110.831 16.43 110.831 17.67C110.831 18.91 110.541 20.04 109.961 21.06C109.401 22.06 108.601 22.85 107.561 23.43C106.521 24.01 105.331 24.3 103.991 24.3C102.691 24.3 101.521 24.03 100.481 23.49C99.4408 22.93 98.6208 22.15 98.0208 21.15C97.4408 20.15 97.1508 18.99 97.1508 17.67ZM99.9708 17.7C99.9708 18.48 100.141 19.2 100.481 19.86C100.841 20.52 101.321 21.04 101.921 21.42C102.541 21.8 103.221 21.99 103.961 21.99C105.121 21.99 106.081 21.58 106.841 20.76C107.601 19.94 107.981 18.92 107.981 17.7C107.981 16.48 107.601 15.46 106.841 14.64C106.081 13.8 105.121 13.38 103.961 13.38C103.201 13.38 102.521 13.58 101.921 13.98C101.321 14.36 100.841 14.88 100.481 15.54C100.141 16.2 99.9708 16.92 99.9708 17.7ZM113.498 17.67C113.498 16.45 113.788 15.34 114.368 14.34C114.968 13.32 115.788 12.52 116.828 11.94C117.888 11.36 119.078 11.07 120.398 11.07C121.718 11.07 122.888 11.36 123.908 11.94C124.948 12.52 125.748 13.31 126.308 14.31C126.888 15.31 127.178 16.43 127.178 17.67C127.178 18.91 126.888 20.04 126.308 21.06C125.748 22.06 124.948 22.85 123.908 23.43C122.868 24.01 121.678 24.3 120.338 24.3C119.038 24.3 117.868 24.03 116.828 23.49C115.788 22.93 114.968 22.15 114.368 21.15C113.788 20.15 113.498 18.99 113.498 17.67ZM116.318 17.7C116.318 18.48 116.488 19.2 116.828 19.86C117.188 20.52 117.668 21.04 118.268 21.42C118.888 21.8 119.568 21.99 120.308 21.99C121.468 21.99 122.428 21.58 123.188 20.76C123.948 19.94 124.328 18.92 124.328 17.7C124.328 16.48 123.948 15.46 123.188 14.64C122.428 13.8 121.468 13.38 120.308 13.38C119.548 13.38 118.868 13.58 118.268 13.98C117.668 14.36 117.188 14.88 116.828 15.54C116.488 16.2 116.318 16.92 116.318 17.7ZM135.336 18.03L133.716 19.35V24H130.926V0.749999H133.716V16.44L140.136 11.28L141.846 12.78L137.256 16.47L142.446 24H139.176L135.336 18.03ZM149.407 24.27C148.487 24.27 147.607 24.11 146.767 23.79C145.947 23.47 145.277 23 144.757 22.38L145.957 20.76C146.457 21.24 146.977 21.61 147.517 21.87C148.077 22.13 148.627 22.26 149.167 22.26C149.827 22.26 150.367 22.13 150.787 21.87C151.207 21.61 151.417 21.21 151.417 20.67C151.417 20.25 151.287 19.91 151.027 19.65C150.767 19.39 150.467 19.2 150.127 19.08C149.807 18.96 149.257 18.78 148.477 18.54C146.357 17.86 145.297 16.65 145.297 14.91C145.297 13.87 145.677 12.98 146.437 12.24C147.217 11.5 148.297 11.13 149.677 11.13C150.557 11.13 151.337 11.24 152.017 11.46C152.697 11.68 153.327 12.03 153.907 12.51L152.797 14.22C152.477 13.88 152.067 13.61 151.567 13.41C151.087 13.21 150.627 13.1 150.187 13.08C149.627 13.08 149.147 13.22 148.747 13.5C148.347 13.76 148.147 14.12 148.147 14.58C148.147 14.96 148.277 15.28 148.537 15.54C148.797 15.78 149.067 15.96 149.347 16.08C149.627 16.18 150.177 16.36 150.997 16.62C152.017 16.96 152.807 17.4 153.367 17.94C153.947 18.48 154.237 19.21 154.237 20.13C154.237 21.33 153.817 22.32 152.977 23.1C152.137 23.88 150.947 24.27 149.407 24.27Z" fill="black"/>
</svg>
